<svg width="20" height="20" viewBox="0 0 20 20" fill="none" xmlns="http://www.w3.org/2000/svg">
<path d="M15.949 9.99442C15.949 9.12339 15.7798 8.29146 15.4414 7.4986C15.1031 6.70575 14.6457 6.02084 14.0694 5.44389C13.4931 4.86693 12.8089 4.40908 12.0169 4.07035C11.2249 3.73162 10.3939 3.56226 9.52381 3.56226C8.65374 3.56226 7.8227 3.73162 7.03071 4.07035C6.23872 4.40908 5.55456 4.86693 4.97823 5.44389C4.4019 6.02084 3.94455 6.70575 3.60619 7.4986C3.26783 8.29146 3.09864 9.12339 3.09864 9.99442C3.09864 10.8654 3.26783 11.6974 3.60619 12.4902C3.94455 13.2831 4.4019 13.968 4.97823 14.5449C5.55456 15.1219 6.23872 15.5798 7.03071 15.9185C7.8227 16.2572 8.65374 16.4266 9.52381 16.4266C10.3939 16.4266 11.2249 16.2572 12.0169 15.9185C12.8089 15.5798 13.4931 15.1219 14.0694 14.5449C14.6457 13.968 15.1031 13.2831 15.4414 12.4902C15.7798 11.6974 15.949 10.8654 15.949 9.99442ZM19.0277 13.0877C18.998 13.1993 18.9236 13.2738 18.8046 13.311L15.5474 14.383V17.8001C15.5474 17.9192 15.4991 18.016 15.4024 18.0905C15.2908 18.1649 15.183 18.1798 15.0789 18.1351L11.8217 17.0854L9.81383 19.8548C9.73947 19.9516 9.64279 20 9.52381 20C9.40483 20 9.30815 19.9516 9.23378 19.8548L7.22592 17.0854L3.96872 18.1351C3.86461 18.1798 3.75678 18.1649 3.64523 18.0905C3.54855 18.016 3.50022 17.9192 3.50022 17.8001V14.383L0.243015 13.311C0.124031 13.2738 0.0496654 13.1993 0.0199193 13.0877C-0.0172634 12.9611 -0.00239032 12.8532 0.0645385 12.7638L2.0724 9.99442L0.0645385 7.22501C-0.00239032 7.12823 -0.0172634 7.02029 0.0199193 6.90117C0.0496654 6.7895 0.124031 6.71506 0.243015 6.67783L3.50022 5.60581V2.18872C3.50022 2.06961 3.54855 1.97283 3.64523 1.89838C3.75678 1.82393 3.86461 1.80905 3.96872 1.85371L7.22592 2.90341L9.23378 0.134003C9.30071 0.0446678 9.39739 0 9.52381 0C9.65023 0 9.74691 0.0446678 9.81383 0.134003L11.8217 2.90341L15.0789 1.85371C15.183 1.80905 15.2908 1.82393 15.4024 1.89838C15.4991 1.97283 15.5474 2.06961 15.5474 2.18872V5.60581L18.8046 6.67783C18.9236 6.71506 18.998 6.7895 19.0277 6.90117C19.0649 7.02029 19.05 7.12823 18.9831 7.22501L16.9752 9.99442L18.9831 12.7638C19.05 12.8532 19.0649 12.9611 19.0277 13.0877Z" fill="#5F8AFA"/>
</svg>
