<svg width="28" height="28" viewBox="0 0 28 28" fill="none" xmlns="http://www.w3.org/2000/svg">
<g clip-path="url(#clip0_42_602)">
<g opacity="0.3" filter="url(#filter0_d_42_602)">
<rect width="28" height="28" rx="4" fill="#3F4246"/>
</g>
<path d="M22.4001 9.01356C21.8101 9.2759 21.1814 9.44978 20.5259 9.53422C21.2002 9.12613 21.7149 8.48486 21.9568 7.71192C21.3281 8.09186 20.634 8.36023 19.8942 8.50999C19.2972 7.8657 18.4463 7.46667 17.5181 7.46667C15.7173 7.46667 14.2675 8.94823 14.2675 10.7645C14.2675 11.0258 14.2893 11.2771 14.3428 11.5163C11.6385 11.3826 9.24566 10.0689 7.63816 8.06773C7.35752 8.56125 7.19291 9.12613 7.19291 9.73424C7.19291 10.8761 7.77303 11.8882 8.63776 12.4742C8.11516 12.4642 7.60246 12.3104 7.16811 12.0681C7.16811 12.0782 7.16811 12.0913 7.16811 12.1043C7.16811 13.7065 8.29564 15.0373 9.77421 15.3439C9.50944 15.4172 9.22086 15.4524 8.92138 15.4524C8.71313 15.4524 8.5029 15.4403 8.30556 15.3961C8.72701 16.7018 9.92296 17.6617 11.345 17.6928C10.2383 18.5703 8.83312 19.099 7.31191 19.099C7.04515 19.099 6.7893 19.087 6.53345 19.0538C7.97434 19.9956 9.68199 20.5333 11.5235 20.5333C17.5092 20.5333 20.7817 15.5077 20.7817 11.1515C20.7817 11.0057 20.7768 10.865 20.7698 10.7253C21.4154 10.2609 21.9578 9.68096 22.4001 9.01356Z" fill="white"/>
</g>
<defs>
<filter id="filter0_d_42_602" x="-12" y="-8" width="52" height="52" filterUnits="userSpaceOnUse" color-interpolation-filters="sRGB">
<feFlood flood-opacity="0" result="BackgroundImageFix"/>
<feColorMatrix in="SourceAlpha" type="matrix" values="0 0 0 0 0 0 0 0 0 0 0 0 0 0 0 0 0 0 127 0" result="hardAlpha"/>
<feOffset dy="4"/>
<feGaussianBlur stdDeviation="6"/>
<feComposite in2="hardAlpha" operator="out"/>
<feColorMatrix type="matrix" values="0 0 0 0 0.639216 0 0 0 0 0.698039 0 0 0 0 0.278431 0 0 0 0.2 0"/>
<feBlend mode="normal" in2="BackgroundImageFix" result="effect1_dropShadow_42_602"/>
<feBlend mode="normal" in="SourceGraphic" in2="effect1_dropShadow_42_602" result="shape"/>
</filter>
<clipPath id="clip0_42_602">
<rect width="28" height="28" rx="4" fill="white"/>
</clipPath>
</defs>
</svg>
